<svg width="24" height="24" viewBox="0 0 24 24" fill="none" xmlns="http://www.w3.org/2000/svg">
<path fill-rule="evenodd" clip-rule="evenodd" d="M11.8896 1.00098C12.7732 1.00106 13.6211 1.31431 14.2461 1.87207L22.002 8.79785V23.001H14.2246V17.0469C14.2245 16.5209 13.9895 16.0165 13.5732 15.6445C13.1566 15.2724 12.5912 15.0626 12.002 15.0625C11.4126 15.0625 10.8474 15.2724 10.4307 15.6445C10.0142 16.0166 9.77944 16.5208 9.7793 17.0469V23.001H2.00195V8.59863L9.5332 1.87207C10.1582 1.31424 11.006 1.001 11.8896 1.00098ZM11.8896 2.50098C11.3524 2.501 10.8664 2.69304 10.5322 2.99121L3.50195 9.26855V21.501H8.2793V17.0469C8.27944 16.0646 8.71852 15.1622 9.43164 14.5254C10.1393 13.8935 11.0661 13.5625 12.002 13.5625C12.9377 13.5626 13.8647 13.8935 14.5723 14.5254C15.2852 15.1622 15.7245 16.0648 15.7246 17.0469V21.501H20.502V9.46777L13.2471 2.99121C12.913 2.6931 12.4268 2.50106 11.8896 2.50098Z" fill="#262626" fill-opacity="0.5"/>
</svg>
