<svg width="34" height="34" viewBox="0 0 34 34" fill="none" xmlns="http://www.w3.org/2000/svg">
<path d="M5.04688 9.894C5.25822 9.894 5.46091 9.81004 5.61035 9.6606C5.75979 9.51116 5.84375 9.30847 5.84375 9.09713V5.84375H9.09713C9.30847 5.84375 9.51116 5.75979 9.6606 5.61035C9.81004 5.46091 9.894 5.25822 9.894 5.04688C9.894 4.83553 9.81004 4.63284 9.6606 4.4834C9.51116 4.33396 9.30847 4.25 9.09713 4.25H5.04688C4.83553 4.25 4.63284 4.33396 4.4834 4.4834C4.33396 4.63284 4.25 4.83553 4.25 5.04688V9.09713C4.25 9.30847 4.33396 9.51116 4.4834 9.6606C4.63284 9.81004 4.83553 9.894 5.04688 9.894ZM28.9531 4.25H24.9029C24.6915 4.25 24.4888 4.33396 24.3394 4.4834C24.19 4.63284 24.106 4.83553 24.106 5.04688C24.106 5.25822 24.19 5.46091 24.3394 5.61035C24.4888 5.75979 24.6915 5.84375 24.9029 5.84375H28.1562V9.09713C28.1562 9.30847 28.2402 9.51116 28.3896 9.6606C28.5391 9.81004 28.7418 9.894 28.9531 9.894C29.1645 9.894 29.3672 9.81004 29.5166 9.6606C29.666 9.51116 29.75 9.30847 29.75 9.09713V5.04688C29.75 4.83553 29.666 4.63284 29.5166 4.4834C29.3672 4.33396 29.1645 4.25 28.9531 4.25ZM9.09713 28.1562H5.84375V24.9029C5.84375 24.6915 5.75979 24.4888 5.61035 24.3394C5.46091 24.19 5.25822 24.106 5.04688 24.106C4.83553 24.106 4.63284 24.19 4.4834 24.3394C4.33396 24.4888 4.25 24.6915 4.25 24.9029V28.9531C4.25 29.1645 4.33396 29.3672 4.4834 29.5166C4.63284 29.666 4.83553 29.75 5.04688 29.75H9.09713C9.30847 29.75 9.51116 29.666 9.6606 29.5166C9.81004 29.3672 9.894 29.1645 9.894 28.9531C9.894 28.7418 9.81004 28.5391 9.6606 28.3896C9.51116 28.2402 9.30847 28.1562 9.09713 28.1562ZM28.9531 24.106C28.7418 24.106 28.5391 24.19 28.3896 24.3394C28.2402 24.4888 28.1562 24.6915 28.1562 24.9029V28.1562H24.9029C24.6915 28.1562 24.4888 28.2402 24.3394 28.3896C24.19 28.5391 24.106 28.7418 24.106 28.9531C24.106 29.1645 24.19 29.3672 24.3394 29.5166C24.4888 29.666 24.6915 29.75 24.9029 29.75H28.9531C29.1645 29.75 29.3672 29.666 29.5166 29.5166C29.666 29.3672 29.75 29.1645 29.75 28.9531V24.9029C29.75 24.6915 29.666 24.4888 29.5166 24.3394C29.3672 24.19 29.1645 24.106 28.9531 24.106ZM14.9409 8.36719H9.09713C8.88578 8.36719 8.68309 8.45114 8.53365 8.60059C8.38421 8.75003 8.30025 8.95272 8.30025 9.16406V15.0078C8.30025 15.2192 8.38421 15.4218 8.53365 15.5713C8.68309 15.7207 8.88578 15.8047 9.09713 15.8047H14.9409C15.1522 15.8047 15.3549 15.7207 15.5044 15.5713C15.6538 15.4218 15.7378 15.2192 15.7378 15.0078V9.16406C15.7378 8.95272 15.6538 8.75003 15.5044 8.60059C15.3549 8.45114 15.1522 8.36719 14.9409 8.36719ZM14.144 14.2109H9.894V9.96094H14.144V14.2109ZM14.9409 18.2625H9.09713C8.88578 18.2625 8.68309 18.3465 8.53365 18.4959C8.38421 18.6454 8.30025 18.848 8.30025 19.0594V24.9031C8.30025 25.1145 8.38421 25.3172 8.53365 25.4666C8.68309 25.6161 8.88578 25.7 9.09713 25.7H14.9409C15.1522 25.7 15.3549 25.6161 15.5044 25.4666C15.6538 25.3172 15.7378 25.1145 15.7378 24.9031V19.0594C15.7378 18.9547 15.7172 18.8511 15.6772 18.7544C15.6371 18.6576 15.5784 18.5698 15.5044 18.4957C15.4304 18.4217 15.3426 18.363 15.2459 18.3229C15.1492 18.2829 15.0455 18.2625 14.9409 18.2625ZM14.144 24.1063H9.894V19.8563H14.144V24.1063ZM19.0591 15.8047H24.9029C25.1142 15.8047 25.3169 15.7207 25.4664 15.5713C25.6158 15.4218 25.6997 15.2192 25.6997 15.0078V9.16406C25.6997 8.95272 25.6158 8.75003 25.4664 8.60059C25.3169 8.45114 25.1142 8.36719 24.9029 8.36719H19.0591C18.8478 8.36719 18.6451 8.45114 18.4956 8.60059C18.3462 8.75003 18.2622 8.95272 18.2622 9.16406V15.0078C18.2622 15.2192 18.3462 15.4218 18.4956 15.5713C18.6451 15.7207 18.8478 15.8047 19.0591 15.8047ZM19.856 9.96094H24.106V14.2109H19.856V9.96094ZM19.0591 21.4479C19.2705 21.4479 19.4732 21.364 19.6226 21.2145C19.772 21.0651 19.856 20.8624 19.856 20.6511V19.856H21.2511C21.4624 19.856 21.6651 19.772 21.8145 19.6226C21.964 19.4732 22.0479 19.2705 22.0479 19.0591C22.0479 18.8478 21.964 18.6451 21.8145 18.4956C21.6651 18.3462 21.4624 18.2622 21.2511 18.2622H19.0591C18.8478 18.2622 18.6451 18.3462 18.4956 18.4956C18.3462 18.6451 18.2622 18.8478 18.2622 19.0591V20.6508C18.2622 20.8621 18.3462 21.0648 18.4956 21.2143C18.6451 21.3637 18.8478 21.4479 19.0591 21.4479ZM24.106 24.9031C24.106 25.1145 24.19 25.3172 24.3394 25.4666C24.4888 25.6161 24.6915 25.7 24.9029 25.7C25.1142 25.7 25.3169 25.6161 25.4664 25.4666C25.6158 25.3172 25.6997 25.1145 25.6997 24.9031V21.9813C25.6997 21.7699 25.6158 21.5672 25.4664 21.4178C25.3169 21.2683 25.1142 21.1844 24.9029 21.1844H21.981C21.7697 21.1844 21.567 21.2683 21.4175 21.4178C21.2681 21.5672 21.1841 21.7699 21.1841 21.9813C21.1841 22.1926 21.2681 22.3953 21.4175 22.5447C21.567 22.6942 21.7697 22.7781 21.981 22.7781H24.106V24.9031ZM20.7198 24.1063H19.0591C18.8478 24.1063 18.6451 24.1902 18.4956 24.3397C18.3462 24.4891 18.2622 24.6918 18.2622 24.9031C18.2622 25.1145 18.3462 25.3172 18.4956 25.4666C18.6451 25.6161 18.8478 25.7 19.0591 25.7H20.7198C20.9312 25.7 21.1339 25.616 21.2834 25.4666C21.4328 25.3171 21.5168 25.1144 21.5168 24.903C21.5168 24.6916 21.4328 24.4889 21.2834 24.3394C21.1339 24.19 20.9312 24.1063 20.7198 24.1063ZM24.9029 16.8851C24.6915 16.8851 24.4888 16.969 24.3394 17.1185C24.19 17.2679 24.106 17.4706 24.106 17.682V19.0591C24.106 19.2705 24.19 19.4732 24.3394 19.6226C24.4888 19.772 24.6915 19.856 24.9029 19.856C25.1142 19.856 25.3169 19.772 25.4664 19.6226C25.6158 19.4732 25.6997 19.2705 25.6997 19.0591V17.6817C25.6997 17.4704 25.6158 17.2677 25.4664 17.1182C25.3169 16.9688 25.1142 16.8851 24.9029 16.8851ZM18.2006 22.3922C18.1268 22.2261 17.9985 22.0901 17.837 22.0067C17.6755 21.9233 17.4904 21.8974 17.3122 21.9333C17.134 21.9691 16.9733 22.0647 16.8567 22.2041C16.7401 22.3436 16.6744 22.5186 16.6706 22.7003C16.6681 22.8201 16.6925 22.9389 16.7421 23.048C16.7917 23.157 16.8651 23.2536 16.9571 23.3304C17.049 23.4073 17.1569 23.4625 17.2731 23.492C17.3892 23.5216 17.5104 23.5246 17.6279 23.5009C17.7453 23.4773 17.856 23.4276 17.9516 23.3554C18.0473 23.2832 18.1255 23.1905 18.1804 23.0841C18.2354 22.9776 18.2658 22.8602 18.2693 22.7404C18.2728 22.6207 18.2493 22.5017 18.2006 22.3922ZM18.2006 17.3772C18.1544 17.2705 18.0854 17.1753 17.9984 17.0982C17.9114 17.0211 17.8085 16.9641 17.697 16.9311C17.5855 16.8981 17.4682 16.89 17.3532 16.9074C17.2383 16.9247 17.1285 16.9671 17.0318 17.0314C16.935 17.0958 16.8535 17.1807 16.7931 17.28C16.7327 17.3793 16.6948 17.4907 16.6822 17.6063C16.6695 17.7218 16.6824 17.8388 16.7199 17.9488C16.7573 18.0588 16.8185 18.1593 16.8991 18.2431C17.0281 18.3774 17.2002 18.462 17.3853 18.4823C17.5703 18.5026 17.7567 18.4572 17.9117 18.354C18.0667 18.2509 18.1806 18.0966 18.2334 17.918C18.2862 17.7395 18.2746 17.5481 18.2006 17.3772Z" fill="white"/>
</svg>
