<svg width="24" height="24" viewBox="0 0 24 24" fill="none" xmlns="http://www.w3.org/2000/svg">
<path d="M11.542 2.44385C11.6336 2.43195 11.7927 2.41829 11.9922 2.43179C12.1916 2.41827 12.3506 2.43192 12.4423 2.44385C12.6403 2.46958 12.8088 2.56698 12.9248 2.70446C13.0541 2.77557 13.1664 2.8529 13.2627 2.93261C13.5559 2.84075 13.9305 2.7878 14.3564 2.87696L14.5078 2.91499C14.8683 3.01811 15.1385 3.19899 15.331 3.37036C15.6338 3.34167 16.0257 3.36155 16.4277 3.54935L16.5839 3.63097C16.9475 3.84071 17.1699 4.11899 17.3066 4.35808C17.5804 4.42322 17.9162 4.55071 18.2334 4.80788C18.5265 5.04578 18.7069 5.31787 18.8222 5.56096C19.1192 5.6054 19.4029 5.72739 19.6377 5.92173L19.7236 5.99778L19.7441 6.01911L19.7519 6.02746H19.7529C20.0409 6.31851 20.1457 6.6465 20.1767 6.91223C20.4615 7.1401 20.8141 7.5202 20.9785 8.091V8.09193C21.1078 8.5419 21.0686 8.94219 20.997 9.23731C21.1961 9.53794 21.286 9.89826 21.2343 10.2612C21.2331 10.2698 21.231 10.2786 21.2295 10.2872L21.2304 10.2881C21.2302 10.2896 21.2287 10.2913 21.2285 10.2927L21.2295 10.2937L21.2265 10.3076L21.2255 10.3066C21.1699 10.6247 21.0107 10.9099 20.7802 11.1321C20.826 11.3677 20.8772 11.7344 20.7968 12.0697L20.7939 12.0836C20.792 12.0919 20.7893 12.1004 20.7871 12.1086C20.6017 12.7905 19.9292 13.245 18.8242 13.5248C18.774 13.5375 18.7226 13.5436 18.6709 13.5462L18.6718 13.548C18.4074 13.5624 18.1085 13.5887 17.7832 13.6352C18.5132 13.7096 19.2612 13.7623 20.0166 13.7901L20.5966 13.8059L20.6611 13.8105C20.9993 13.8454 21.4676 13.8946 21.8769 13.9774C22.0803 14.0186 22.3012 14.0735 22.497 14.1527C22.6392 14.2102 22.8872 14.3261 23.0615 14.5515L23.1318 14.6545L23.1748 14.7435C23.2217 14.8598 23.2413 14.9726 23.2441 15.0783C23.4094 15.1802 23.5913 15.338 23.6875 15.5773C23.8291 15.9297 23.7121 16.261 23.5136 16.4852C23.5215 16.6203 23.5029 16.7629 23.4453 16.91C23.2837 17.3225 22.8962 17.5702 22.5498 17.7159L22.5507 17.7168C22.4506 17.7598 22.3445 17.7989 22.2343 17.8346C22.1308 17.9836 21.9988 18.0853 21.9023 18.1453C21.7208 18.2582 21.5134 18.3288 21.3271 18.3744C21.0691 18.4375 20.774 18.4687 20.4755 18.4699C20.4415 18.4981 20.408 18.5244 20.375 18.5478L20.3759 18.5488C20.0913 18.7523 19.7217 18.8764 19.3779 18.954C19.1031 19.0161 18.803 19.0561 18.498 19.0755C18.2839 19.2207 18.0395 19.316 17.83 19.377C17.4779 19.4793 17.066 19.5359 16.6445 19.5393H16.6416L16.6406 19.5402L16.6396 19.5393C16.4585 19.5414 16.2748 19.5335 16.0918 19.5198C15.9456 19.5776 15.7906 19.6279 15.6298 19.6663L15.6289 19.6645C14.9766 19.8257 14.1658 19.8292 13.4951 19.7099C13.2574 19.805 12.9927 19.8694 12.7295 19.9139C12.6402 19.9541 12.543 19.9783 12.4423 19.9826C12.3588 19.9861 12.239 19.9878 12.0957 19.9854C11.898 19.9956 11.6971 19.9962 11.5 19.9863C11.38 19.9802 11.2652 19.9464 11.164 19.8908C10.8819 19.8353 10.6637 19.7637 10.498 19.6941C10.1875 19.754 9.68291 19.8197 9.082 19.772C8.52806 19.7281 8.14158 19.6073 7.90133 19.5068C7.57359 19.5352 6.98432 19.5594 6.3945 19.4307C5.98112 19.3405 5.69725 19.2023 5.50094 19.0616C5.25736 19.0482 4.915 19.0183 4.56539 18.9355L4.32614 18.8706C3.98318 18.7653 3.7237 18.6247 3.53024 18.4597C3.14358 18.4637 2.74479 18.4131 2.42086 18.2956C2.17352 18.2058 1.92713 18.0581 1.7734 17.8272C1.72765 17.8129 1.67973 17.7989 1.6318 17.7818C1.42404 17.7077 1.07133 17.5635 0.811487 17.2986L0.706019 17.1771C0.57911 17.0098 0.500355 16.8149 0.489222 16.6058C0.487061 16.5649 0.490414 16.5254 0.493128 16.4871C0.306702 16.2818 0.15401 15.9487 0.317347 15.5652L0.318323 15.5643C0.422663 15.3204 0.61655 15.1659 0.78219 15.0709C0.786391 14.9204 0.824526 14.7436 0.946253 14.5738L1.03317 14.469C1.25054 14.2433 1.56407 14.1337 1.82321 14.0637C2.16678 13.9709 2.65099 13.8914 3.33004 13.8263C3.34969 13.8244 3.36987 13.823 3.38961 13.8225C4.16722 13.8066 5.15949 13.7609 6.26852 13.6463C5.91673 13.5936 5.59515 13.5634 5.31246 13.548V13.5462C5.26084 13.5435 5.20916 13.5375 5.15914 13.5248C4.05442 13.245 3.38256 12.7904 3.19723 12.1086C3.10232 11.7593 3.15538 11.3712 3.20211 11.1311C2.9743 10.9113 2.81467 10.6297 2.75778 10.315C2.75569 10.3034 2.7534 10.2914 2.75192 10.2797L2.75094 10.2658V10.2649C2.69828 9.90165 2.78625 9.53985 2.98532 9.23824C2.91367 8.9431 2.87551 8.54211 3.00485 8.09193V8.091C3.16933 7.51967 3.52262 7.13914 3.80758 6.9113C3.83964 6.63644 3.95051 6.29508 4.26071 5.99778L4.28219 5.97738C4.52759 5.75114 4.83588 5.61469 5.15914 5.5656C5.27428 5.32132 5.456 5.04824 5.75094 4.80881V4.80788C6.0678 4.55096 6.40307 4.42327 6.67672 4.35808C6.81342 4.11893 7.03671 3.84079 7.40035 3.63097L7.5566 3.54935C7.95806 3.36186 8.34956 3.34184 8.65231 3.37036C8.87067 3.17565 9.19047 2.96874 9.62789 2.87696C10.0534 2.78787 10.4275 2.84088 10.7207 2.93261C10.8172 2.85269 10.9298 2.7748 11.0595 2.70353C11.1755 2.56642 11.3444 2.46954 11.542 2.44385ZM14.7802 14.6303C14.2043 15.5184 13.1908 16.1169 12.0156 16.117C10.845 16.1169 9.83389 15.5238 9.2568 14.6415C8.69586 14.7528 8.07392 14.8594 7.38961 14.9503C5.85787 15.1536 4.47989 15.2233 3.457 15.2452C3.0138 15.2883 2.69583 15.3356 2.47067 15.3797C2.49715 15.5078 2.48787 15.6427 2.43746 15.7692C2.3859 15.8984 2.29608 16.0067 2.18356 16.0864C2.20689 16.2089 2.19682 16.3325 2.15524 16.4463C2.15657 16.4467 2.1578 16.4476 2.15914 16.4481C2.3288 16.5086 2.49486 16.5434 2.54782 16.5538C2.78448 16.6007 2.98319 16.7529 3.08102 16.9628C3.08679 16.9752 3.09068 16.9883 3.09567 17.0009C3.27225 17.0352 3.52659 17.0506 3.78024 17.0185L3.91891 17.0129C4.19291 17.0265 4.43775 17.183 4.55563 17.4182C4.58919 17.4387 4.65952 17.4761 4.78805 17.5156C5.18668 17.6379 5.6656 17.6485 5.81832 17.6491C6.05317 17.6501 6.27187 17.7564 6.41207 17.932C6.43833 17.9484 6.52898 17.9984 6.73043 18.0424C7.27026 18.1601 7.86394 18.0813 7.9277 18.0721L8.06051 18.0646C8.1928 18.0679 8.32271 18.1042 8.43649 18.1713C8.43761 18.172 8.44069 18.1735 8.44528 18.1759C8.45027 18.1786 8.45915 18.1831 8.47164 18.1889C8.49689 18.2007 8.53907 18.2189 8.59957 18.239C8.72055 18.2792 8.91952 18.3294 9.207 18.3521C9.85637 18.4037 10.3429 18.268 10.3798 18.2575C10.5951 18.1962 10.8282 18.2302 11.0146 18.3494C11.0176 18.3513 11.0531 18.3737 11.1308 18.4041C11.2103 18.4351 11.3405 18.4763 11.5332 18.5098C11.577 18.5174 11.6238 18.5242 11.6777 18.5311C11.7314 18.538 11.7829 18.5514 11.832 18.5682C11.8981 18.5677 11.9637 18.5662 12.0283 18.5627C12.049 18.5615 12.0701 18.5612 12.0908 18.5617C12.1311 18.5627 12.1691 18.5608 12.2041 18.5608C12.2384 18.5516 12.2732 18.5421 12.3095 18.5376C12.6651 18.4934 12.9045 18.4138 13.0078 18.354L13.0752 18.3188C13.2343 18.2462 13.4164 18.2288 13.5888 18.2715C14.083 18.3936 14.7809 18.4049 15.2558 18.2863L15.2636 18.2844C15.4167 18.2479 15.5306 18.2047 15.6054 18.1667L15.7109 18.1231C15.8194 18.0869 15.9357 18.0744 16.0507 18.0878C16.231 18.1089 16.4255 18.1182 16.625 18.1156H16.6289C16.9243 18.1135 17.192 18.0723 17.3906 18.0146C17.4897 17.9857 17.5595 17.9565 17.6015 17.9339C17.6149 17.9267 17.6224 17.9202 17.6269 17.9172C17.7656 17.7613 17.9685 17.6691 18.1845 17.6649C18.4921 17.659 18.787 17.6234 19.0302 17.5685C19.2887 17.5101 19.4279 17.4434 19.4736 17.4108L19.4775 17.408C19.4795 17.4066 19.4808 17.4046 19.4824 17.4034C19.6264 17.1533 19.9153 17.0054 20.2187 17.0361C20.4787 17.0624 20.7464 17.0417 20.9355 16.9981C20.9463 16.972 20.9586 16.946 20.9726 16.9211C21.0746 16.7405 21.2537 16.6105 21.4638 16.564C21.6252 16.5284 21.7623 16.4838 21.875 16.4398C21.8352 16.3249 21.8258 16.2005 21.8515 16.0781C21.743 16.0013 21.6559 15.897 21.6035 15.7739C21.5481 15.6437 21.5369 15.5037 21.5644 15.3704C21.2482 15.3065 20.8646 15.2642 20.5205 15.2285C18.921 15.1938 17.3344 15.0576 15.8525 14.8232C15.4882 14.7656 15.1308 14.6994 14.7802 14.6303ZM3.04098 17.612C3.05035 17.5969 3.06204 17.5755 3.07418 17.549C3.06383 17.5702 3.05363 17.5916 3.04098 17.612ZM12.0156 11.1654C11.0604 11.1656 10.2442 11.9331 10.2441 12.9294C10.2445 13.9257 11.0607 14.6923 12.0156 14.6925C12.9705 14.6924 13.7867 13.9257 13.7871 12.9294C13.787 11.933 12.9709 11.1655 12.0156 11.1654ZM11.9941 3.85633C11.9925 3.85634 11.9909 3.85634 11.9892 3.85633C11.9669 3.86625 11.9454 3.87811 11.9218 3.88601C11.9011 3.89296 11.8777 3.90183 11.8535 3.91291C11.6821 3.99152 11.5926 4.11956 11.5605 4.17259C11.4526 4.35106 11.2682 4.47662 11.0556 4.51667C10.8432 4.55656 10.6225 4.50701 10.4511 4.38126C10.4405 4.37351 10.3745 4.32742 10.2763 4.29316C10.1805 4.25975 10.0714 4.24302 9.95114 4.26812C9.8405 4.29133 9.75467 4.34309 9.68746 4.40074C9.61863 4.45981 9.58028 4.51638 9.57223 4.52872C9.38244 4.81981 9.0014 4.94111 8.665 4.81808C8.65998 4.81625 8.58241 4.78944 8.4775 4.78377C8.40206 4.7797 8.3259 4.78698 8.25192 4.81437L8.17867 4.84869C8.09526 4.89688 8.03885 4.96183 7.99899 5.02861C7.95802 5.09735 7.94155 5.15634 7.93844 5.16865C7.85859 5.48497 7.56315 5.70986 7.22067 5.71491C7.15054 5.71599 6.92295 5.73132 6.72555 5.89113C6.50825 6.0675 6.46479 6.31091 6.457 6.37803C6.43211 6.59216 6.30635 6.78418 6.1152 6.90017C5.92408 7.01604 5.68759 7.0438 5.47262 6.9753C5.41091 6.95578 5.35557 6.97328 5.32711 6.99941L5.32614 7.00034L5.30953 7.02352C5.30458 7.03391 5.30047 7.0477 5.29782 7.06711C5.29517 7.08663 5.29478 7.10617 5.29586 7.12183C5.29695 7.13734 5.29872 7.14357 5.29684 7.13482C5.36198 7.43871 5.21283 7.74787 4.9277 7.89902C4.85691 7.93654 4.55367 8.11412 4.45211 8.46661C4.36582 8.76668 4.47201 9.02272 4.50973 9.10098C4.6555 9.40359 4.56176 9.76165 4.28317 9.96349C4.25694 9.98249 4.24029 10.0111 4.23629 10.0414V10.0739L4.24508 10.1017C4.25812 10.1283 4.28237 10.1509 4.31344 10.162C4.68681 10.2945 4.88595 10.681 4.76657 11.0421C4.7646 11.048 4.76249 11.0537 4.76168 11.056H4.76071V11.0606L4.74117 11.1246C4.7243 11.1828 4.70255 11.2653 4.68356 11.3574C4.66447 11.45 4.65018 11.542 4.64547 11.6227C4.64316 11.6624 4.6438 11.6946 4.64547 11.7191C4.64638 11.7325 4.64753 11.7416 4.6484 11.7469C4.6782 11.7917 4.83785 11.9597 5.48922 12.1318C6.31172 12.1829 7.40224 12.3369 8.61032 12.7606C8.6559 12.7766 8.70115 12.7934 8.74606 12.8098C8.81039 11.1252 10.2276 9.74109 12.0156 9.74091C13.7976 9.74109 15.2101 11.116 15.2832 12.7931C15.313 12.7823 15.3429 12.7712 15.373 12.7606C16.5803 12.3372 17.6708 12.183 18.4931 12.1318C19.1363 11.962 19.3008 11.7965 19.3339 11.7488C19.3442 11.6974 19.342 11.5575 19.3007 11.3574C19.2818 11.2653 19.26 11.1828 19.2431 11.1246L19.2236 11.0606V11.0588C19.2233 11.058 19.2221 11.0572 19.2216 11.056C19.2208 11.0537 19.2197 11.048 19.2177 11.0421C19.0983 10.6811 19.2968 10.2947 19.6699 10.162C19.711 10.1474 19.7415 10.1121 19.748 10.072V10.0405C19.7437 10.0109 19.7274 9.98254 19.7011 9.96349C19.4226 9.76171 19.328 9.40356 19.4736 9.10098C19.5113 9.02273 19.6175 8.76669 19.5312 8.46661C19.4297 8.11444 19.1276 7.93667 19.0566 7.89902C18.7714 7.74789 18.6213 7.43874 18.6865 7.13482C18.6868 7.13216 18.6871 7.12839 18.6875 7.12369C18.6886 7.10861 18.689 7.08926 18.6865 7.0699C18.6815 7.03119 18.67 7.0141 18.6591 7.00312L18.6552 6.99941C18.6265 6.97388 18.5723 6.95565 18.5107 6.9753C18.2957 7.04374 18.0592 7.01613 17.8681 6.90017C17.6771 6.78417 17.5522 6.59206 17.5273 6.37803C17.5205 6.31924 17.4862 6.12544 17.332 5.95976L17.2588 5.89113C17.061 5.73091 16.8324 5.71594 16.7627 5.71491C16.4203 5.70972 16.1247 5.48494 16.0449 5.16865C16.0418 5.15631 16.0263 5.09734 15.9853 5.02861C15.9454 4.96173 15.8882 4.89692 15.8047 4.84869C15.7085 4.79343 15.6069 4.77838 15.5068 4.78377C15.4038 4.78936 15.3276 4.81542 15.3203 4.81808C14.9839 4.94114 14.6029 4.8197 14.413 4.52872C14.4055 4.51711 14.367 4.46003 14.2978 4.40074C14.2471 4.35729 14.1856 4.31735 14.1113 4.29037L14.0332 4.26812C13.9128 4.24292 13.8029 4.25968 13.707 4.29316C13.6076 4.3279 13.5413 4.37456 13.5322 4.38126C13.3607 4.5071 13.1403 4.55671 12.9277 4.51667C12.7152 4.47659 12.5317 4.35096 12.4238 4.17259C12.3919 4.11983 12.3043 3.99522 12.1386 3.91662V3.91569L12.1298 3.91291C12.1058 3.9019 12.0831 3.89292 12.0625 3.88601C12.0386 3.87803 12.0166 3.86637 11.9941 3.85633Z" fill="#262626" fill-opacity="0.75"/>
</svg>
