<svg width="72" height="50" viewBox="0 0 72 50" fill="none" xmlns="http://www.w3.org/2000/svg">
<path d="M10.0782 37.3754C-9.2099 19.7791 16.0402 -4.52325 32.0366 11.2111V11.3646C26.1017 7.21346 17.7936 7.52973 11.7947 12.6479L11.5121 12.8944C5.8282 17.9511 4.70849 29.3035 10.0224 35.2686V16.663C10.7671 15.0385 12.943 13.0732 13.9251 12.6117L13.8898 38.3662C18.7224 40.8067 24.6737 40.1094 30.5675 37.1944C24.376 41.606 17.7333 41.3011 13.8898 39.4558L13.927 43.1501C13.9067 48.2576 10.3579 49.779 7.45488 49.9842C4.63485 50.1833 0.845243 48.51 0.65313 44.6418C1.4548 47.6704 4.33015 48.8905 6.49438 48.7234C9.80185 48.3012 10.0782 45.5867 10.0782 43.0465V37.3754ZM0.623787 43.7487C-0.270363 39.6349 3.50494 35.7086 8.77728 37.9544V41.5431C6.02244 38.5762 1.1148 39.8378 0.623787 43.7487ZM63.2089 6.57385C58.7513 8.32889 58.1754 11.1179 58.2548 12.8494C58.372 15.4044 59.1806 17.6691 61.8542 18.9489L62.1203 19.0672C65.5535 20.6149 71.3282 23.9134 71.3282 30.4416C71.3634 43.2189 57.9344 43.108 57.844 43.1071H30.9011V42.0586H31.4214C32.1235 41.6826 32.3744 40.66 32.4621 40.0955V36.7015C33.9076 35.4208 35.1126 33.8897 36.0185 32.1905V42.0586C36.1131 42.0585 56.7743 42.0496 56.8825 42.0449C62.6436 41.4804 67.3688 36.9705 67.3688 30.467C67.3687 25.86 65.7224 22.0416 61.6537 19.7754C57.5932 17.5589 55.8202 15.8723 55.7313 12.8601C55.6128 8.83294 58.7773 6.57385 63.2089 6.57385ZM40.6851 40.5454H39.0898V39.7307H39.6091C40.5964 39.2022 40.6842 37.3995 40.6851 37.3803V40.5454ZM55.9846 22.0495C53.6283 22.1646 51.4831 24.4311 50.6138 27.742H62.533C61.6887 25.0477 60.5799 23.6296 58.4856 22.4935C61.4219 23.3331 63.4071 25.6691 64.3024 28.5177L50.5424 28.5617C50.3302 29.4545 50.2107 30.3782 50.206 31.2935C50.1775 36.2825 52.1377 40.3491 55.9846 40.5366L55.6276 40.5445C50.5189 40.5443 46.3767 36.4023 46.3767 31.2935C46.3768 26.1849 50.5189 22.0428 55.6276 22.0426C55.7473 22.0426 55.8661 22.0447 55.9846 22.0495ZM44.2444 40.5435H40.687V26.6583C40.687 26.1187 44.2385 20.7711 44.2385 20.7711L44.2444 40.5435ZM36.0175 16.2864C37.494 19.3899 37.9269 23.6335 37.3067 26.9576C37.0091 28.2062 36.5748 29.4299 36.0175 30.5991C35.9594 30.7224 35.8983 30.8447 35.8366 30.9668C35.8272 30.9845 35.8196 31.0037 35.8102 31.0226L35.8161 31.0089C34.948 32.7189 33.8154 34.2974 32.4611 35.6422L32.4651 12.2537L32.4592 12.2478V7.39546L36.0175 5.86766V16.2864ZM36.0175 30.515C37.4856 26.7569 37.437 22.4496 36.0175 18.8647V30.515ZM40.777 14.7313C41.6995 14.3127 42.8545 14.5499 43.6028 15.234C44.3499 15.9183 44.6928 16.9884 44.5789 17.9952C44.4649 19.002 43.5529 20.2351 43.5529 20.2351C42.3184 22.1657 41.4912 23.4659 40.2567 25.3965C40.712 24.4597 42.1137 21.205 41.9429 20.4982C41.7988 19.8971 41.3369 19.461 40.865 19.0388L40.4014 18.6124C40.003 18.2282 39.6516 17.7685 39.5153 17.2313C39.2662 16.2482 39.8544 15.1511 40.777 14.7313ZM56.503 7.09127C54.9279 7.48418 52.9019 10.3189 54.7629 14.6413L54.9537 15.0638C50.181 10.1628 53.4384 6.2672 54.0362 5.81875L56.503 7.09127ZM65.2766 6.75382C66.7222 6.75269 71.8095 9.90154 69.4561 12.9658C69.1193 13.4046 68.2625 13.4948 67.7395 13.3169C67.2166 13.139 66.838 12.5744 66.9198 12.0278C66.9649 11.729 67.1311 11.4609 67.3267 11.2296C67.582 10.9287 67.9075 10.6488 68.0261 10.2848L68.0623 10.1224C68.054 8.44082 66.1103 7.10129 65.2766 6.75382ZM15.4431 0.986909C15.4262 0.994216 14.8578 1.24032 14.8181 1.25784C13.9228 2.20008 13.9154 3.93883 13.9153 3.97111V6.48876C12.7378 6.65595 11.3583 7.21851 10.0077 8.55354L10.039 3.3285L4.10193 5.89994C2.55078 6.59013 3.02848 7.91271 3.13165 8.44399C3.19275 8.7562 3.15276 9.08466 3.05536 9.38982L3.00939 9.51697C2.7722 10.1382 2.04297 10.5056 1.38964 10.3836C0.736214 10.2614 0.20487 9.69812 0.0613762 9.04944C-0.082103 8.4007 -0.154486 6.64605 2.01074 5.63096L15.0049 0L15.4431 0.986909Z" fill="#E83D34"/>
</svg>
