<svg width="24" height="24" viewBox="0 0 24 24" fill="none" xmlns="http://www.w3.org/2000/svg">
<path fill-rule="evenodd" clip-rule="evenodd" d="M12.0476 1C12.3669 1 12.6517 1.20231 12.7565 1.50391L15.1306 8.33398L22.361 8.48242C22.6802 8.48893 22.9605 8.69646 23.0593 9C23.1579 9.30363 23.0539 9.63717 22.7995 9.83008L17.0349 14.1992L19.1306 21.1211C19.2229 21.4267 19.1115 21.7577 18.8532 21.9453C18.595 22.1328 18.2461 22.1363 17.9841 21.9541L12.0476 17.8232L6.11201 21.9541C5.85009 22.1364 5.50114 22.1326 5.24287 21.9453C4.98457 21.7576 4.87309 21.4267 4.96553 21.1211L7.05928 14.1992L1.29658 9.83008C1.04215 9.63718 0.938153 9.30367 1.03682 9C1.13555 8.69664 1.41513 8.48907 1.73408 8.48242L8.96455 8.33398L11.3396 1.50391L11.3864 1.39551C11.5154 1.15475 11.7682 1.00011 12.0476 1ZM10.2106 9.32031C10.1076 9.61661 9.83091 9.81783 9.51729 9.82422L3.92061 9.9375L8.38154 13.3193C8.63142 13.5089 8.73701 13.8336 8.64619 14.1338L7.0251 19.4902L11.6198 16.2939L11.7194 16.2354C11.9609 16.1176 12.2509 16.1371 12.4763 16.2939L17.07 19.4902L15.4489 14.1338C15.3581 13.8337 15.464 13.5089 15.7136 13.3193L20.1735 9.9375L14.5788 9.82422C14.2652 9.81782 13.9885 9.61657 13.8854 9.32031L12.0476 4.03418L10.2106 9.32031Z" fill="#262626"/>
</svg>
