<svg width="24" height="24" viewBox="0 0 24 24" fill="none" xmlns="http://www.w3.org/2000/svg">
<path fill-rule="evenodd" clip-rule="evenodd" d="M8.07324 10.915C9.45395 10.915 10.5732 12.0343 10.5732 13.415C10.5731 14.7956 9.45387 15.915 8.07324 15.915C6.69272 15.9149 5.57337 14.7956 5.57324 13.415C5.57324 12.0344 6.69264 10.9152 8.07324 10.915ZM8.07324 12.3438C7.48162 12.3439 7.00195 12.8234 7.00195 13.415C7.00209 14.0066 7.4817 14.4862 8.07324 14.4863C8.66489 14.4863 9.1444 14.0067 9.14453 13.415C9.14453 12.8233 8.66498 12.3438 8.07324 12.3438Z" fill="#262626"/>
<path fill-rule="evenodd" clip-rule="evenodd" d="M12 2.37402C12.304 2.37402 12.6047 2.43937 12.8818 2.56445C13.1589 2.68953 13.4064 2.87165 13.6074 3.09961L13.6094 3.10156L17.3232 7.34277H20.5732C21.3621 7.3429 22.0019 7.98263 22.002 8.77148V20.2002C22.0019 20.484 21.9171 20.7474 21.7744 20.9697C21.7314 21.0632 21.6702 21.1504 21.5859 21.2207C21.5679 21.2357 21.5473 21.2468 21.5283 21.2598C21.2751 21.4882 20.9411 21.6288 20.5732 21.6289H3.42969C2.64094 21.6287 2.00197 20.989 2.00195 20.2002V8.77148C2.00201 7.98271 2.64096 7.34303 3.42969 7.34277H6.67676L10.3916 3.10156L10.3926 3.09961C10.5936 2.87172 10.8413 2.68953 11.1182 2.56445C11.3952 2.43939 11.696 2.37405 12 2.37402ZM3.42969 20.2002H7.0957L13.6055 14.6592L13.6074 14.6582C13.8675 14.4348 14.1691 14.2645 14.4951 14.1582C14.8217 14.0517 15.1664 14.0116 15.5088 14.0391C15.8513 14.0665 16.1857 14.1611 16.4912 14.3184C16.7967 14.4756 17.0677 14.6924 17.2891 14.9551L17.292 14.957L20.5732 18.8916V8.77148H3.42969V20.2002ZM15.3945 15.4629C15.2404 15.4506 15.0855 15.4687 14.9385 15.5166C14.7913 15.5646 14.6545 15.6412 14.5371 15.7422L14.5342 15.7451L9.2998 20.2002H19.8047L16.1973 15.875L16.1963 15.874C16.0967 15.7562 15.9741 15.6595 15.8369 15.5889C15.6993 15.5181 15.5488 15.4753 15.3945 15.4629ZM12 3.80273C11.8987 3.80276 11.7984 3.82454 11.7061 3.86621C11.6141 3.90776 11.5317 3.96836 11.4648 4.04395L8.57617 7.34277H15.4248L12.5361 4.04492L12.5352 4.04395C12.4682 3.9683 12.386 3.90776 12.2939 3.86621C12.2016 3.82453 12.1013 3.80273 12 3.80273Z" fill="#262626"/>
</svg>
