<svg width="24" height="24" viewBox="0 0 24 24" fill="none" xmlns="http://www.w3.org/2000/svg">
<g clip-path="url(#clip0_0_234)">
<path d="M17.2439 16.3728V14.016C17.2439 13.6262 16.928 13.3101 16.538 13.3101C16.1481 13.3101 15.8322 13.6262 15.8322 14.016V16.6422C15.8322 16.8157 15.896 16.9831 16.0116 17.1124L17.4078 18.6755C17.5472 18.8315 17.7403 18.9112 17.9344 18.9112C18.1018 18.9112 18.2697 18.852 18.4044 18.7317C18.6952 18.4721 18.7202 18.0258 18.4606 17.735L17.2438 16.3729L17.2439 16.3728Z" fill="#262626" fill-opacity="0.75"/>
<path d="M21.8979 12.5497V6.56993C21.8979 4.64047 20.329 3.07059 18.4006 3.07059H17.3602V1.60574C17.3602 1.21595 17.0443 0.899858 16.6543 0.899858C16.2644 0.899858 15.9485 1.21595 15.9485 1.60574V3.07059H6.6558V1.60574C6.6558 1.21595 6.33984 0.899858 5.94991 0.899858C5.55998 0.899858 5.24403 1.21595 5.24403 1.60574V3.07059H4.20342C2.27495 3.07059 0.706055 4.64047 0.706055 6.56993V18.205C0.706055 20.1344 2.27495 21.7043 4.20342 21.7043H12.7452C13.8548 22.5775 15.2525 23.1004 16.7708 23.1004C20.3678 23.1004 23.2943 20.1737 23.2943 16.5762C23.2943 15.0576 22.7714 13.6597 21.8981 12.5499L21.8979 12.5497ZM2.11768 18.2048V6.56993C2.11768 5.41878 3.05326 4.48235 4.20328 4.48235H5.24389V6.41139C5.24389 6.80118 5.55984 7.11727 5.94977 7.11727C6.3397 7.11727 6.65566 6.80118 6.65566 6.41139V4.48235H15.9483V6.41139C15.9483 6.80118 16.2643 7.11727 16.6542 7.11727C17.0441 7.11727 17.3601 6.80118 17.3601 6.41139V4.48235H18.4004C19.5504 4.48235 20.486 5.41878 20.486 6.56993V11.218C19.4309 10.4839 18.1505 10.0519 16.7705 10.0519C13.1735 10.0519 10.2469 12.9786 10.2469 16.5761C10.2469 17.9564 10.6789 19.2371 11.4132 20.2926H4.20328C3.05326 20.2926 2.11768 19.356 2.11768 18.2048ZM16.7707 21.6885C13.9519 21.6885 11.6588 19.3951 11.6588 16.5761C11.6588 13.7571 13.9519 11.4637 16.7707 11.4637C19.5894 11.4637 21.8824 13.7571 21.8824 16.5761C21.8824 19.3951 19.5893 21.6885 16.7707 21.6885Z" fill="#262626" fill-opacity="0.75"/>
</g>
<defs>
<clipPath id="clip0_0_234">
<rect width="24" height="24" fill="white"/>
</clipPath>
</defs>
</svg>
