<svg width="24" height="24" viewBox="0 0 24 24" fill="none" xmlns="http://www.w3.org/2000/svg">
<path d="M9.49994 20.25C9.63883 20.9167 10.3333 22.25 11.9999 22.25C13.6666 22.25 14.3611 20.9167 14.4999 20.25M9.99994 3.25L10.2111 2.82771C10.9481 1.35361 13.0517 1.35361 13.7888 2.82771L13.9999 3.25M17.8235 9.62767V12.4608C17.8235 13.2956 18.106 14.1058 18.6252 14.7596L19.3682 15.6952C20.1944 16.7356 19.8163 18.2761 18.6021 18.8157C14.3989 20.6838 9.60099 20.6838 5.39774 18.8157C4.18363 18.2761 3.80548 16.7356 4.63173 15.6952L5.37469 14.7596C5.89384 14.1058 6.17641 13.2956 6.17641 12.4608V9.62767C6.17641 7.7822 6.89531 6.00932 8.18064 4.68504C10.2713 2.53104 13.7286 2.53104 15.8192 4.68504C17.1046 6.00932 17.8235 7.7822 17.8235 9.62767Z" stroke="#262626" stroke-width="1.5" stroke-linecap="round"/>
</svg>
