<svg width="24" height="24" viewBox="0 0 24 24" fill="none" xmlns="http://www.w3.org/2000/svg">
<path fill-rule="evenodd" clip-rule="evenodd" d="M8.98379 12.5939C6.78474 12.5939 5 14.3786 5 16.5777C5 18.7767 6.78474 20.5614 8.98379 20.5614C11.1828 20.5614 12.9676 18.7767 12.9676 16.5777C12.9676 14.3786 11.1828 12.5939 8.98379 12.5939ZM8.98379 13.8519C10.4884 13.8519 11.7095 15.073 11.7095 16.5777C11.7095 18.0823 10.4884 19.3034 8.98379 19.3034C7.47918 19.3034 6.25804 18.0823 6.25804 16.5777C6.25804 15.073 7.47918 13.8519 8.98379 13.8519Z" fill="#49382B"/>
<path fill-rule="evenodd" clip-rule="evenodd" d="M12.9676 16.5774V4.39374L15.7487 6.41583C16.1488 6.7077 16.4189 7.14382 16.5002 7.63193L16.7501 9.13236C16.8072 9.47538 17.1317 9.70686 17.4739 9.64983C17.817 9.5928 18.0484 9.26822 17.9914 8.92604C17.9914 8.92604 17.8572 8.12341 17.7415 7.42562C17.6056 6.61208 17.1561 5.8841 16.4885 5.3985C15.16 4.43232 12.7085 2.64926 12.7085 2.64926C12.5173 2.51088 12.264 2.49075 12.0535 2.5981C11.8421 2.70545 11.7096 2.92184 11.7096 3.15835V16.5774C11.7096 16.9247 11.9914 17.2065 12.3386 17.2065C12.6858 17.2065 12.9676 16.9247 12.9676 16.5774Z" fill="#49382B"/>
</svg>
