<svg width="24" height="24" viewBox="0 0 24 24" fill="none" xmlns="http://www.w3.org/2000/svg">
<path d="M16.3 10.8C17.7587 10.8 19.1577 11.3794 20.1891 12.4109C21.2206 13.4424 21.8 14.8413 21.8 16.3C21.8 17.7587 21.2206 19.1576 20.1891 20.1891C19.1577 21.2205 17.7587 21.8 16.3 21.8C14.8414 21.8 13.4424 21.2205 12.411 20.1891C11.3795 19.1576 10.8 17.7587 10.8 16.3C10.8 14.8413 11.3795 13.4424 12.411 12.4109C13.4424 11.3794 14.8414 10.8 16.3 10.8ZM16.55 1.79999C17.412 1.79999 18.2387 2.1424 18.8481 2.75189C19.4576 3.36138 19.8 4.18803 19.8 5.04999L19.801 10.823C19.3336 10.5229 18.8294 10.2843 18.301 10.113L18.3 7.29999H3.30005V16.55C3.30005 17.516 4.08405 18.3 5.05005 18.3H10.114C10.286 18.834 10.526 19.338 10.823 19.801L5.05005 19.8C4.1881 19.8 3.36144 19.4576 2.75195 18.8481C2.14246 18.2386 1.80005 17.4119 1.80005 16.55V5.04999C1.80005 4.18803 2.14246 3.36138 2.75195 2.75189C3.36144 2.1424 4.1881 1.79999 5.05005 1.79999H16.55ZM15.784 12.846L15.744 12.944L15.188 14.731H13.385C12.853 14.731 12.613 15.399 12.968 15.767L13.042 15.832L14.5 16.937L13.943 18.724C13.778 19.254 14.318 19.699 14.764 19.454L14.842 19.404L16.3 18.3L17.758 19.404C18.191 19.732 18.764 19.334 18.678 18.816L18.657 18.724L18.1 16.937L19.558 15.832C19.988 15.506 19.806 14.818 19.311 14.739L19.215 14.731H17.412L16.855 12.944C16.8234 12.8319 16.7585 12.732 16.6689 12.6576C16.5793 12.5831 16.4692 12.5376 16.3532 12.527C16.2372 12.5163 16.1207 12.5412 16.0191 12.5981C15.9175 12.6551 15.8355 12.7415 15.784 12.846ZM16.55 3.29999H5.05005C4.58592 3.29999 4.1408 3.48436 3.81261 3.81255C3.48442 4.14074 3.30005 4.58586 3.30005 5.04999V5.79999H18.3V5.04999C18.3 4.58586 18.1157 4.14074 17.7875 3.81255C17.4593 3.48436 17.0142 3.29999 16.55 3.29999Z" fill="#262626" fill-opacity="0.5"/>
</svg>
