<svg width="24" height="24" viewBox="0 0 24 24" fill="none" xmlns="http://www.w3.org/2000/svg">
<path fill-rule="evenodd" clip-rule="evenodd" d="M12.0004 6.7628C14.0982 6.7628 15.799 8.41415 15.7992 10.4513C15.7992 12.4886 14.0984 14.1407 12.0004 14.1407C9.90264 14.1405 8.20255 12.4884 8.20255 10.4513C8.20275 8.41429 9.90277 6.76303 12.0004 6.7628ZM12.0004 8.41416C10.8422 8.4144 9.90295 9.32651 9.90274 10.4513C9.90274 11.5762 10.842 12.4882 12.0004 12.4884C13.159 12.4884 14.099 11.5763 14.099 10.4513C14.0988 9.32637 13.1589 8.41416 12.0004 8.41416Z" fill="#262626" fill-opacity="0.75"/>
<path fill-rule="evenodd" clip-rule="evenodd" d="M12.0033 2.0001C15.818 2.00261 19.7177 4.19017 20.7475 8.6085C21.9392 13.7209 18.6521 17.9524 15.9916 20.4337C13.762 22.5228 10.2363 22.5206 7.99942 20.4347L7.99845 20.4337C5.34765 17.9528 2.05986 13.712 3.25138 8.59971C4.28637 4.18152 8.18864 1.99769 12.0033 2.0001ZM12.0024 3.65244C8.82715 3.65039 5.73739 5.43625 4.91056 8.96397C3.92936 13.174 6.61316 16.8425 9.17813 19.2433C10.7586 20.7168 13.2421 20.7147 14.8109 19.2442L14.8119 19.2433C17.3863 16.8426 20.0697 13.1826 19.0883 8.97276C18.2658 5.44472 15.1778 3.65453 12.0024 3.65244Z" fill="#262626" fill-opacity="0.75"/>
</svg>
