<svg width="24" height="24" viewBox="0 0 24 24" fill="none" xmlns="http://www.w3.org/2000/svg">
<path fill-rule="evenodd" clip-rule="evenodd" d="M8.98379 12.5938C6.78474 12.5938 5 14.3786 5 16.5776C5 18.7767 6.78474 20.5614 8.98379 20.5614C11.1828 20.5614 12.9676 18.7767 12.9676 16.5776C12.9676 14.3786 11.1828 12.5938 8.98379 12.5938ZM8.98379 13.8519C10.4884 13.8519 11.7095 15.073 11.7095 16.5776C11.7095 18.0822 10.4884 19.3034 8.98379 19.3034C7.47918 19.3034 6.25804 18.0822 6.25804 16.5776C6.25804 15.073 7.47918 13.8519 8.98379 13.8519Z" fill="#262626" fill-opacity="0.75"/>
<path fill-rule="evenodd" clip-rule="evenodd" d="M12.9676 16.5776L12.9676 4.39369L15.7487 6.41578C16.1488 6.70764 16.4188 7.14376 16.5002 7.63188L16.7501 9.1323C16.8071 9.47533 17.1317 9.70681 17.4739 9.64978C17.8169 9.59274 18.0484 9.26817 17.9914 8.92598C17.9914 8.92598 17.8572 8.12335 17.7414 7.42556C17.6056 6.61203 17.156 5.88405 16.4884 5.39844C15.1599 4.43227 12.7084 2.64921 12.7084 2.64921C12.5172 2.51082 12.2639 2.49069 12.0534 2.59805C11.8421 2.7054 11.7096 2.92178 11.7096 3.15829L11.7095 16.5776C11.7095 16.9248 11.9914 17.2064 12.3386 17.2064C12.6858 17.2064 12.9676 16.9248 12.9676 16.5776Z" fill="#262626" fill-opacity="0.75"/>
<path d="M12.085 2.42212C12.3229 2.34 12.5887 2.37786 12.7959 2.52759H12.7969V2.52856L12.7988 2.52954C12.8 2.53039 12.8016 2.53193 12.8037 2.53345C12.8083 2.53682 12.8153 2.54161 12.8242 2.5481C12.8425 2.56138 12.8695 2.58139 12.9043 2.60669C12.9739 2.6573 13.075 2.73048 13.2002 2.82153C13.4508 3.00379 13.799 3.25701 14.1885 3.54028C14.9674 4.10679 15.9119 4.79451 16.5762 5.27759H16.5771C17.2762 5.78631 17.7473 6.54865 17.8896 7.40063C17.9475 7.7493 18.0096 8.12455 18.0576 8.41235C18.0816 8.55622 18.1018 8.67876 18.1162 8.76489C18.1234 8.80796 18.1299 8.84217 18.1338 8.86548C18.1357 8.87691 18.1367 8.88583 18.1377 8.89185C18.1382 8.89469 18.1384 8.89715 18.1387 8.89868L18.1396 8.90063V8.90161C18.2101 9.32538 17.9227 9.72651 17.498 9.79712C17.0743 9.86753 16.6731 9.58117 16.6025 9.15649L16.3525 7.65649C16.2777 7.20734 16.0286 6.8062 15.6602 6.53735L13.1172 4.68774V16.5774C13.1172 18.8593 11.2653 20.7112 8.9834 20.7112C6.70168 20.711 4.84961 18.8592 4.84961 16.5774C4.84972 14.2957 6.70175 12.4438 8.9834 12.4436C9.95734 12.4436 10.8528 12.7818 11.5596 13.3459V3.15845C11.5596 2.86552 11.7236 2.59707 11.9854 2.46411L12.085 2.42212ZM8.9834 14.0022C7.56188 14.0024 6.40832 15.1558 6.4082 16.5774C6.4082 17.999 7.56181 19.1534 8.9834 19.1536C10.4052 19.1536 11.5596 17.9992 11.5596 16.5774C11.5595 15.1557 10.4051 14.0022 8.9834 14.0022Z" stroke="#262626" stroke-opacity="0.75" stroke-width="0.3"/>
</svg>
