<svg width="24" height="24" viewBox="0 0 24 24" fill="none" xmlns="http://www.w3.org/2000/svg">
<path d="M16.2496 11.4238C16.595 11.3955 17.0196 11.4307 17.4302 11.6494C17.8524 11.8744 18.187 12.2552 18.4048 12.7861C18.5618 13.1692 18.3787 13.6074 17.9956 13.7646C17.6127 13.9214 17.1754 13.7382 17.0181 13.3554C16.914 13.1017 16.7977 13.0113 16.7251 12.9726C16.6409 12.9278 16.5259 12.9064 16.3726 12.9189C16.2179 12.9316 16.0604 12.9766 15.9341 13.0254C15.8736 13.0487 15.8255 13.0708 15.7945 13.0859C15.7793 13.0933 15.7688 13.0996 15.7632 13.1025L15.6939 13.1367C15.3461 13.2894 14.9322 13.1569 14.7408 12.8193C14.5365 12.459 14.6628 12.0012 15.023 11.7969L15.3892 12.4414C15.055 11.8519 15.0252 11.8013 15.023 11.7969L15.024 11.7959L15.0288 11.7929C15.0311 11.7917 15.0347 11.7907 15.0376 11.789C15.0439 11.7856 15.0527 11.7813 15.0621 11.7763C15.0812 11.7662 15.107 11.7525 15.1382 11.7373C15.2011 11.7067 15.2882 11.6658 15.3941 11.625C15.6018 11.5448 15.9052 11.4521 16.2496 11.4238Z" fill="#262626" fill-opacity="0.75"/>
<path d="M11.0347 10.0263C11.3801 9.99801 11.8047 10.0332 12.2154 10.2519C12.6376 10.4769 12.9721 10.8578 13.19 11.3887C13.347 11.7718 13.1639 12.21 12.7808 12.3672C12.3978 12.524 11.9605 12.3408 11.8033 11.958C11.6992 11.7042 11.5829 11.6139 11.5103 11.5752C11.4261 11.5303 11.3111 11.5089 11.1578 11.5215C11.0031 11.5342 10.8456 11.5792 10.7193 11.6279C10.6588 11.6513 10.6106 11.6734 10.5796 11.6885C10.5645 11.6958 10.554 11.7021 10.5484 11.7051L10.479 11.7392C10.1312 11.8919 9.71735 11.7594 9.52592 11.4219C9.3217 11.0616 9.44793 10.6037 9.80814 10.3994L10.1744 11.0439C9.84019 10.4545 9.81033 10.4039 9.80814 10.3994L9.80912 10.3984L9.814 10.3955C9.81624 10.3942 9.81981 10.3932 9.82279 10.3916C9.8291 10.3881 9.83788 10.3838 9.84721 10.3789C9.8664 10.3687 9.89219 10.355 9.92338 10.3398C9.98627 10.3092 10.0734 10.2684 10.1792 10.2275C10.387 10.1474 10.6903 10.0546 11.0347 10.0263Z" fill="#262626" fill-opacity="0.75"/>
<path fill-rule="evenodd" clip-rule="evenodd" d="M11.2925 5.58787C14.1803 5.46259 17.0418 6.22889 19.48 7.78123C20.1561 8.21167 20.8121 8.65065 21.2954 9.02049C21.5334 9.20259 21.7543 9.38683 21.9175 9.5576C21.997 9.64081 22.0892 9.74853 22.1607 9.87205C22.2157 9.96732 22.3546 10.2344 22.2662 10.5644C21.0783 14.9973 19.3004 18.0933 17.3003 19.9697C15.2942 21.8517 13.0259 22.5293 10.9771 21.9804C8.90808 21.4259 7.42896 19.7199 6.78568 17.1181C6.14769 14.5374 6.30558 11.0169 7.48783 6.60447C7.57643 6.2738 7.83143 6.11228 7.92631 6.0576C8.04989 5.98639 8.18305 5.93951 8.2935 5.90721C8.52031 5.84093 8.80391 5.79163 9.10111 5.75291C9.70464 5.67429 10.4918 5.62262 11.2925 5.58787ZM11.357 7.08592C10.5678 7.12017 9.83314 7.1702 9.29545 7.24021C9.1123 7.26407 8.96547 7.29072 8.85404 7.31443C7.78711 11.4361 7.7015 14.5722 8.24174 16.7578C8.79072 18.9784 9.957 20.1537 11.3648 20.5312C12.7931 20.914 14.5464 20.4966 16.274 18.876C17.9638 17.2906 19.5888 14.5761 20.7271 10.4951C20.6426 10.4191 20.5293 10.3236 20.3833 10.2119C19.9526 9.8823 19.341 9.47132 18.6744 9.04685C16.4955 7.65959 13.9376 6.97394 11.357 7.08592Z" fill="#262626" fill-opacity="0.75"/>
<path d="M5.11186 1.53611C5.92713 1.37335 6.89149 1.37464 7.77787 1.43455C8.67424 1.49517 9.54054 1.61982 10.1783 1.72849C10.4978 1.78296 10.7629 1.83465 10.9488 1.87205C11.0414 1.8907 11.1149 1.90615 11.1656 1.91697C11.1909 1.92239 11.2115 1.92667 11.2251 1.92967C11.2315 1.93106 11.2371 1.93179 11.2408 1.9326L11.3218 1.95408C11.682 2.07458 11.8999 2.45145 11.815 2.83006C11.724 3.234 11.3225 3.48816 10.9185 3.39744L10.9156 3.39646C10.913 3.39592 10.9083 3.3957 10.9029 3.39451C10.8918 3.39208 10.8745 3.38855 10.8521 3.38377C10.8069 3.37411 10.7393 3.35918 10.6529 3.34178C10.4793 3.30685 10.2292 3.25862 9.92631 3.20701C9.31799 3.10334 8.50601 2.9867 7.67728 2.93064C6.83827 2.87391 6.02838 2.88349 5.4058 3.00779C4.77235 3.13429 4.56459 3.32955 4.50639 3.44724C3.65242 6.65272 3.38377 9.28108 3.5435 11.3418C3.57544 11.7545 3.26761 12.1151 2.85502 12.1474C2.44212 12.1795 2.0805 11.8709 2.04838 11.458C1.87093 9.16895 2.17644 6.34561 3.07182 3.00389L3.08256 2.9658L3.09623 2.92869C3.43594 2.0444 4.34479 1.68931 5.11186 1.53611Z" fill="#262626" fill-opacity="0.75"/>
<path d="M11.2882 5.48825C14.1964 5.36209 17.0778 6.13394 19.5333 7.69724C20.21 8.12809 20.8697 8.56887 21.3566 8.94138C21.5956 9.12429 21.8209 9.31206 21.9894 9.48825C22.0715 9.57421 22.1701 9.68899 22.2472 9.82224C22.3058 9.92374 22.4615 10.2212 22.3624 10.5908C21.1715 15.0349 19.386 18.15 17.3683 20.0429C15.3438 21.942 13.0413 22.637 10.9513 22.0771C8.83823 21.5108 7.33818 19.7694 6.6886 17.1425C6.04504 14.5392 6.2072 11.0001 7.39172 6.57907C7.49099 6.20859 7.77527 6.02879 7.8761 5.97067C8.00945 5.89383 8.15172 5.84485 8.26575 5.81149C8.49992 5.74308 8.78924 5.69222 9.08801 5.65329C9.69592 5.5741 10.4868 5.52303 11.2882 5.48825ZM11.3615 7.18552C10.5732 7.21973 9.84203 7.27038 9.30872 7.33981C9.15998 7.35919 9.03565 7.38054 8.93567 7.40036C7.88594 11.483 7.80695 14.5806 8.33899 16.7334C8.88163 18.9283 10.0268 20.0688 11.3907 20.4345C12.7779 20.8062 14.4964 20.4057 16.2052 18.8027C17.8693 17.2414 19.4782 14.5642 20.6124 10.5283C20.5362 10.4617 20.4405 10.3814 20.3224 10.291C19.8951 9.96409 19.2861 9.55478 18.6202 9.13083C16.4588 7.7548 13.9213 7.07447 11.3615 7.18552ZM16.2413 11.3242C16.5995 11.2948 17.0453 11.3312 17.4777 11.5615C17.923 11.799 18.2719 12.199 18.4972 12.748C18.6751 13.1822 18.4675 13.6792 18.0333 13.8574C17.5993 14.0349 17.1042 13.8271 16.9259 13.3935C16.8294 13.1583 16.7272 13.0868 16.6779 13.0605C16.6156 13.0275 16.5214 13.0071 16.381 13.0185C16.2388 13.0302 16.0904 13.0726 15.9698 13.1191C15.9126 13.1412 15.8669 13.1617 15.838 13.1758C15.8324 13.1785 15.8276 13.1812 15.8234 13.1836L15.8097 13.1914L15.8077 13.1924L15.7384 13.2265L15.7345 13.2285C15.3403 13.4016 14.8705 13.2516 14.6534 12.8691C14.4246 12.4654 14.5622 11.953 14.9601 11.7177L14.962 11.7168L14.9728 11.7099L14.9777 11.707L14.9806 11.705L15.0607 11.6601L15.0626 11.6631C15.0725 11.658 15.0836 11.6529 15.0948 11.6474C15.159 11.6162 15.2491 11.5734 15.3585 11.5312C15.572 11.4489 15.8849 11.3535 16.2413 11.3242ZM11.0265 9.92673C11.3847 9.89735 11.8304 9.93375 12.2628 10.164C12.7082 10.4015 13.0571 10.8016 13.2823 11.3506C13.4603 11.7847 13.2526 12.2817 12.8185 12.4599C12.3845 12.6374 11.8893 12.4296 11.7111 11.9961C11.6146 11.7608 11.5124 11.6894 11.463 11.6631C11.4008 11.6301 11.3066 11.6096 11.1661 11.6211C11.0239 11.6327 10.8756 11.6751 10.755 11.7216C10.6978 11.7438 10.6521 11.7642 10.6232 11.7783C10.6176 11.781 10.6128 11.7838 10.6085 11.7861L10.5948 11.7939L10.5929 11.7949L10.5236 11.8291L10.5197 11.831C10.1254 12.0041 9.65561 11.8541 9.4386 11.4716C9.20977 11.0679 9.34737 10.5556 9.74524 10.3203L9.74719 10.3193L9.75793 10.3125L9.76282 10.3095L9.76575 10.3076L9.84583 10.2627L9.84778 10.2656C9.85763 10.2606 9.86871 10.2555 9.88 10.25C9.94414 10.2188 10.0343 10.176 10.1437 10.1338C10.3571 10.0514 10.67 9.95601 11.0265 9.92673ZM5.09192 1.43845C5.91998 1.27313 6.89487 1.27483 7.7843 1.33493C8.68517 1.39586 9.55572 1.52084 10.1954 1.62985C10.5161 1.68452 10.7825 1.73688 10.9689 1.77438C11.0618 1.79309 11.1358 1.80843 11.1866 1.81931C11.2108 1.82446 11.2323 1.82896 11.2462 1.832C11.2472 1.83221 11.2488 1.83257 11.2511 1.83298C11.252 1.83313 11.2536 1.83371 11.255 1.83395L11.2618 1.83493L11.2667 1.83591L11.3478 1.85739L11.3536 1.85934C11.7619 1.99598 12.0082 2.42261 11.9122 2.85153C11.8092 3.30932 11.3545 3.59788 10.8966 3.49509L10.8868 3.49313H10.8859C10.8844 3.49286 10.8825 3.49249 10.881 3.49216V3.49118C10.8699 3.48876 10.8548 3.48647 10.8312 3.48141C10.7853 3.47161 10.7186 3.45666 10.6329 3.43942C10.4602 3.40466 10.2108 3.35702 9.9093 3.30563C9.30307 3.20233 8.49498 3.086 7.67102 3.03024C6.83523 2.97373 6.03468 2.9837 5.42493 3.10544C4.81633 3.22703 4.64146 3.40719 4.59875 3.48532C3.74942 6.67766 3.48529 9.29032 3.64368 11.334C3.67987 11.8016 3.33016 12.2103 2.86243 12.247C2.39477 12.2831 1.98479 11.9338 1.94836 11.4658C1.7698 9.1624 2.07841 6.32749 2.97571 2.97849V2.97653L2.98645 2.93845L2.9884 2.93161L3.00208 2.8945L3.00305 2.89255C3.36259 1.95711 4.31899 1.59288 5.09192 1.43845Z" stroke="#262626" stroke-opacity="0.75" stroke-width="0.2" stroke-linecap="round"/>
</svg>
