<svg width="24" height="24" viewBox="0 0 24 24" fill="none" xmlns="http://www.w3.org/2000/svg">
<path d="M18.9697 18.9697C19.2626 18.6768 19.7374 18.6768 20.0303 18.9697L23.0303 21.9697L23.082 22.0264C23.3223 22.3209 23.3049 22.7557 23.0303 23.0303C22.7557 23.3049 22.3209 23.3223 22.0264 23.082L21.9697 23.0303L18.9697 20.0303C18.6768 19.7374 18.6768 19.2626 18.9697 18.9697Z" fill="#262626"/>
<path fill-rule="evenodd" clip-rule="evenodd" d="M11 1C16.5228 1 21 5.47715 21 11C21 16.5228 16.5228 21 11 21C5.47715 21 1 16.5228 1 11C1 5.47715 5.47715 1 11 1ZM11 2.5C6.30558 2.5 2.5 6.30558 2.5 11C2.5 15.6944 6.30558 19.5 11 19.5C15.6944 19.5 19.5 15.6944 19.5 11C19.5 6.30558 15.6944 2.5 11 2.5Z" fill="#262626"/>
</svg>
