<svg width="24" height="24" viewBox="0 0 24 24" fill="none" xmlns="http://www.w3.org/2000/svg">
<path fill-rule="evenodd" clip-rule="evenodd" d="M11.2925 5.58787C14.1802 5.46259 17.0418 6.22891 19.48 7.78123C20.156 8.21165 20.8121 8.65065 21.2954 9.02048C21.5334 9.20257 21.7543 9.38683 21.9175 9.55759C21.997 9.6408 22.0892 9.74854 22.1607 9.87205C22.2157 9.96732 22.3546 10.2344 22.2662 10.5644C21.0783 14.9973 19.3003 18.0933 17.3003 19.9697C15.2943 21.8516 13.0259 22.5293 10.9771 21.9804C8.90812 21.4259 7.42895 19.7199 6.78568 17.1181C6.1477 14.5374 6.30559 11.0168 7.48783 6.60447C7.57642 6.27386 7.83138 6.11231 7.92631 6.05759C8.04986 5.9864 8.18307 5.93951 8.29349 5.9072C8.52029 5.84093 8.80394 5.79163 9.10111 5.7529C9.70462 5.67429 10.4918 5.62261 11.2925 5.58787ZM16.6665 11.4248C16.5197 11.4112 16.379 11.4132 16.2495 11.4238C16.1634 11.4309 16.0797 11.4421 15.9995 11.456C15.8395 11.4839 15.6929 11.5227 15.5669 11.5635C15.5039 11.5839 15.446 11.6049 15.3941 11.625C15.2882 11.6658 15.2011 11.7067 15.1382 11.7373C15.107 11.7525 15.0812 11.7662 15.062 11.7763C15.0527 11.7813 15.0439 11.7856 15.0376 11.789C15.0347 11.7907 15.0311 11.7917 15.0288 11.7929L15.024 11.7959L15.023 11.7969C15.0006 11.8096 14.9791 11.8233 14.9585 11.8379C14.669 12.0432 14.5635 12.4261 14.7066 12.751C14.7168 12.774 14.7281 12.7969 14.7408 12.8193C14.7648 12.8617 14.7923 12.9008 14.8228 12.9365C14.8833 13.0076 14.9554 13.0653 15.0347 13.1084C15.114 13.1514 15.2005 13.1798 15.2896 13.1924C15.379 13.2049 15.4709 13.2014 15.5611 13.1806C15.606 13.1703 15.6505 13.1558 15.6939 13.1367L15.7632 13.1025C15.7688 13.0995 15.7794 13.0933 15.7945 13.0859C15.8255 13.0708 15.8736 13.0487 15.9341 13.0254C15.9973 13.001 16.0685 12.9779 16.1431 12.959C16.1802 12.9495 16.2181 12.9413 16.2564 12.9345C16.295 12.9278 16.3338 12.9221 16.3726 12.9189C16.4107 12.9158 16.4465 12.9151 16.48 12.916C16.5474 12.9178 16.6057 12.9271 16.6558 12.9433C16.6809 12.9515 16.704 12.9614 16.7251 12.9726C16.7432 12.9823 16.7641 12.9949 16.7867 13.0127C16.8323 13.0485 16.8854 13.1043 16.939 13.1943C16.9656 13.239 16.9922 13.2922 17.0181 13.3554C17.0279 13.3793 17.0384 13.4025 17.0503 13.4248C17.1816 13.6706 17.4359 13.8173 17.7037 13.8203C17.8009 13.8214 17.9 13.8038 17.9956 13.7646C18.0195 13.7548 18.0427 13.7443 18.065 13.7324C18.2215 13.6489 18.338 13.5153 18.4029 13.3603C18.44 13.2716 18.4595 13.1757 18.4605 13.0781C18.4613 13.0051 18.4518 12.9312 18.4302 12.8584C18.423 12.8341 18.4146 12.81 18.4048 12.7861C18.3776 12.7197 18.3488 12.6554 18.3179 12.5937C18.2255 12.4088 18.1164 12.2457 17.9937 12.1035C17.83 11.9138 17.6413 11.7619 17.4302 11.6494C17.379 11.6221 17.3274 11.598 17.2759 11.5761C17.2241 11.5542 17.1724 11.5344 17.1206 11.5176C17.0177 11.484 16.9153 11.4606 16.815 11.4443C16.7649 11.4362 16.7154 11.4293 16.6665 11.4248ZM11.4517 10.0273C11.3048 10.0138 11.1642 10.0157 11.0347 10.0263C10.9485 10.0334 10.8649 10.0446 10.7847 10.0586C10.6246 10.0864 10.4781 10.1252 10.3521 10.166C10.289 10.1864 10.2312 10.2075 10.1792 10.2275C10.0734 10.2684 9.98626 10.3092 9.92338 10.3398C9.8922 10.355 9.86639 10.3687 9.84721 10.3789C9.83789 10.3838 9.82909 10.3881 9.82279 10.3916C9.81982 10.3932 9.81624 10.3942 9.814 10.3955L9.80912 10.3984L9.80814 10.3994C9.78575 10.4121 9.76425 10.4258 9.74369 10.4404C9.45416 10.6457 9.34863 11.0286 9.49174 11.3535C9.50191 11.3766 9.51321 11.3994 9.52592 11.4219C9.54994 11.4642 9.57749 11.5033 9.60795 11.539C9.6685 11.6101 9.7406 11.6679 9.81986 11.7109C9.89919 11.754 9.98566 11.7824 10.0747 11.7949C10.1641 11.8075 10.2561 11.8039 10.3462 11.7832C10.3911 11.7729 10.4356 11.7583 10.479 11.7392L10.5484 11.7051C10.554 11.7021 10.5645 11.6958 10.5796 11.6885C10.6106 11.6734 10.6588 11.6513 10.7193 11.6279C10.7825 11.6035 10.8537 11.5804 10.9283 11.5615C10.9653 11.5521 11.0032 11.5438 11.0415 11.5371C11.0801 11.5303 11.119 11.5246 11.1578 11.5215C11.1959 11.5183 11.2317 11.5176 11.2652 11.5185C11.3326 11.5204 11.3909 11.5297 11.441 11.5459C11.4661 11.554 11.4892 11.5639 11.5103 11.5752C11.5283 11.5848 11.5492 11.5975 11.5718 11.6152C11.6174 11.651 11.6706 11.7069 11.7242 11.7969C11.7508 11.8415 11.7773 11.8947 11.8033 11.958C11.8131 11.9818 11.8236 12.0051 11.8355 12.0273C11.9668 12.2731 12.2211 12.4198 12.4888 12.4228C12.586 12.4239 12.6851 12.4063 12.7808 12.3672C12.8046 12.3574 12.8279 12.3468 12.8501 12.3349C13.0067 12.2514 13.1232 12.1178 13.188 11.9629C13.2251 11.8742 13.2446 11.7783 13.2456 11.6806C13.2464 11.6077 13.2369 11.5337 13.2154 11.4609C13.2082 11.4367 13.1998 11.4125 13.19 11.3886C13.1627 11.3222 13.1339 11.258 13.1031 11.1963C13.0106 11.0114 12.9015 10.8482 12.7788 10.706C12.6152 10.5163 12.4265 10.3644 12.2154 10.2519C12.1641 10.2246 12.1126 10.2005 12.0611 10.1787C12.0092 10.1567 11.9575 10.137 11.9058 10.1201C11.8029 10.0865 11.7004 10.0631 11.6001 10.0469C11.5501 10.0387 11.5006 10.0318 11.4517 10.0273Z" fill="#262626"/>
<path d="M5.11185 1.53611C5.92711 1.37335 6.89151 1.37464 7.77787 1.43455C8.67421 1.49517 9.54054 1.61982 10.1783 1.72849C10.4978 1.78295 10.7629 1.83465 10.9488 1.87205C11.0414 1.89069 11.1149 1.90614 11.1656 1.91697C11.1909 1.92237 11.2115 1.92667 11.2251 1.92966C11.2315 1.93105 11.2371 1.9318 11.2408 1.93259L11.3218 1.95408C11.682 2.07457 11.8999 2.45145 11.815 2.83005C11.724 3.23399 11.3225 3.48815 10.9185 3.39744L10.9156 3.39646C10.913 3.39592 10.9082 3.39569 10.9029 3.39451C10.8918 3.39208 10.8744 3.38854 10.8521 3.38376C10.8069 3.37411 10.7393 3.35916 10.6529 3.34177C10.4793 3.30685 10.2291 3.25861 9.92631 3.20701C9.31799 3.10334 8.50598 2.98669 7.67728 2.93064C6.8383 2.87392 6.02836 2.88349 5.4058 3.00779C4.7724 3.13428 4.56458 3.32955 4.50639 3.44724C3.65243 6.65271 3.38377 9.28108 3.54349 11.3418C3.57544 11.7545 3.26761 12.1151 2.85502 12.1474C2.44215 12.1794 2.0805 11.8708 2.04838 11.458C1.87093 9.16895 2.17644 6.34559 3.07182 3.00388L3.08256 2.9658L3.09623 2.92869C3.43593 2.04443 4.3448 1.68931 5.11185 1.53611Z" fill="#262626"/>
</svg>
